<svg width="27" height="27" viewBox="0 0 27 27" fill="none" xmlns="http://www.w3.org/2000/svg">
<g clip-path="url(#clip0_705_913)">
<path d="M1.58334 1.58333H5.91668L8.82001 16.0892C8.91907 16.5879 9.19041 17.036 9.58652 17.3548C9.98262 17.6737 10.4783 17.8431 10.9867 17.8333H21.5167C22.0251 17.8431 22.5207 17.6737 22.9168 17.3548C23.3129 17.036 23.5843 16.5879 23.6833 16.0892L25.4167 7H7.00001M11.3333 23.25C11.3333 23.8483 10.8483 24.3333 10.25 24.3333C9.6517 24.3333 9.16668 23.8483 9.16668 23.25C9.16668 22.6517 9.6517 22.1667 10.25 22.1667C10.8483 22.1667 11.3333 22.6517 11.3333 23.25ZM23.25 23.25C23.25 23.8483 22.765 24.3333 22.1667 24.3333C21.5684 24.3333 21.0833 23.8483 21.0833 23.25C21.0833 22.6517 21.5684 22.1667 22.1667 22.1667C22.765 22.1667 23.25 22.6517 23.25 23.25Z" stroke="#1E1E1E" stroke-width="4" stroke-linecap="round" stroke-linejoin="round"/>
</g>
<defs>
<clipPath id="clip0_705_913">
<rect width="26" height="26" fill="white" transform="translate(0.5 0.5)"/>
</clipPath>
</defs>
</svg>
