<svg width="27" height="15" viewBox="0 0 27 15" fill="none" xmlns="http://www.w3.org/2000/svg">
<path d="M6.27778 3.16667V0.277779H26.5V3.16667H6.27778ZM6.27778 8.94444V6.05556H26.5V8.94444H6.27778ZM6.27778 14.7222V11.8333H26.5V14.7222H6.27778ZM1.94444 3.16667C1.53519 3.16667 1.19213 3.02824 0.915278 2.75139C0.638426 2.47454 0.5 2.13148 0.5 1.72222C0.5 1.31296 0.638426 0.969908 0.915278 0.693056C1.19213 0.416205 1.53519 0.277779 1.94444 0.277779C2.3537 0.277779 2.69676 0.416205 2.97361 0.693056C3.25046 0.969908 3.38889 1.31296 3.38889 1.72222C3.38889 2.13148 3.25046 2.47454 2.97361 2.75139C2.69676 3.02824 2.3537 3.16667 1.94444 3.16667ZM1.94444 8.94444C1.53519 8.94444 1.19213 8.80602 0.915278 8.52917C0.638426 8.25232 0.5 7.90926 0.5 7.5C0.5 7.09074 0.638426 6.74769 0.915278 6.47083C1.19213 6.19398 1.53519 6.05556 1.94444 6.05556C2.3537 6.05556 2.69676 6.19398 2.97361 6.47083C3.25046 6.74769 3.38889 7.09074 3.38889 7.5C3.38889 7.90926 3.25046 8.25232 2.97361 8.52917C2.69676 8.80602 2.3537 8.94444 1.94444 8.94444ZM1.94444 14.7222C1.53519 14.7222 1.19213 14.5838 0.915278 14.3069C0.638426 14.0301 0.5 13.687 0.5 13.2778C0.5 12.8685 0.638426 12.5255 0.915278 12.2486C1.19213 11.9718 1.53519 11.8333 1.94444 11.8333C2.3537 11.8333 2.69676 11.9718 2.97361 12.2486C3.25046 12.5255 3.38889 12.8685 3.38889 13.2778C3.38889 13.687 3.25046 14.0301 2.97361 14.3069C2.69676 14.5838 2.3537 14.7222 1.94444 14.7222Z" fill="#1D1B20"/>
</svg>
